<?xml version="1.0" encoding="UTF-8" standalone="no"?>
<!-- Uploaded to: SVG Repo, www.svgrepo.com, Generator: SVG Repo Mixer Tools -->

<svg
   width="800px"
   height="800px"
   viewBox="0 0 32 32"
   version="1.1"
   id="svg8"
   sodipodi:docname="analysis.svg"
   inkscape:version="1.4 (e7c3feb100, 2024-10-09)"
   xmlns:inkscape="http://www.inkscape.org/namespaces/inkscape"
   xmlns:sodipodi="http://sodipodi.sourceforge.net/DTD/sodipodi-0.dtd"
   xmlns="http://www.w3.org/2000/svg"
   xmlns:svg="http://www.w3.org/2000/svg">
  <sodipodi:namedview
     id="namedview8"
     pagecolor="#ffffff"
     bordercolor="#000000"
     borderopacity="0.25"
     inkscape:showpageshadow="2"
     inkscape:pageopacity="0.0"
     inkscape:pagecheckerboard="0"
     inkscape:deskcolor="#d1d1d1"
     inkscape:zoom="1.01625"
     inkscape:cx="400"
     inkscape:cy="400"
     inkscape:window-width="1920"
     inkscape:window-height="1022"
     inkscape:window-x="0"
     inkscape:window-y="0"
     inkscape:window-maximized="1"
     inkscape:current-layer="_18._Bar_Graphic" />
  <defs
     id="defs1">
    <style
       id="style1">.cls-1{fill:#04009a;}.cls-2{fill:#77acf1;}</style>
  </defs>
  <g
     data-name="18. Bar Graphic"
     id="_18._Bar_Graphic">
    <path
       class="cls-1"
       d="M17,32H15a3,3,0,0,1-3-3V17a3,3,0,0,1,3-3h2a3,3,0,0,1,3,3v6a1,1,0,0,1-2,0V17a1,1,0,0,0-1-1H15a1,1,0,0,0-1,1V29a1,1,0,0,0,1,1h2a1,1,0,0,0,1-1V27a1,1,0,0,1,2,0v2A3,3,0,0,1,17,32Z"
       id="path1"
       style="fill:#ffffff;fill-opacity:1" />
    <path
       class="cls-1"
       d="M7,32H5a3,3,0,0,1-3-3V23a3,3,0,0,1,3-3H7a3,3,0,0,1,3,3v6A3,3,0,0,1,7,32ZM5,22a1,1,0,0,0-1,1v6a1,1,0,0,0,1,1H7a1,1,0,0,0,1-1V23a1,1,0,0,0-1-1Z"
       id="path2"
       style="fill:#ffffff;fill-opacity:1" />
    <path
       class="cls-1"
       d="M27,32H25a3,3,0,0,1-3-3V13a3,3,0,0,1,3-3h2a3,3,0,0,1,3,3v4a1,1,0,0,1-2,0V13a1,1,0,0,0-1-1H25a1,1,0,0,0-1,1V29a1,1,0,0,0,1,1h2a1,1,0,0,0,1-1V21a1,1,0,0,1,2,0v8A3,3,0,0,1,27,32Z"
       id="path3"
       style="fill:#ffffff;fill-opacity:1" />
    <path
       class="cls-2"
       d="M6,16a3,3,0,1,1,3-3A3,3,0,0,1,6,16Zm0-4a1,1,0,1,0,1,1A1,1,0,0,0,6,12Z"
       id="path4"
       style="fill:#0099cc;fill-opacity:1" />
    <path
       class="cls-2"
       d="M16,10a3,3,0,1,1,3-3A3,3,0,0,1,16,10Zm0-4a1,1,0,1,0,1,1A1,1,0,0,0,16,6Z"
       id="path5"
       style="fill:#0099cc;fill-opacity:1" />
    <path
       class="cls-2"
       d="M26,6a3,3,0,1,1,3-3A3,3,0,0,1,26,6Zm0-4a1,1,0,1,0,1,1A1,1,0,0,0,26,2Z"
       id="path6"
       style="fill:#0099cc;fill-opacity:1" />
    <path
       class="cls-2"
       d="M7.711,12.97A1,1,0,0,1,7.2,11.112l6.58-3.94A1,1,0,0,1,14.8,8.888l-6.58,3.94A1,1,0,0,1,7.711,12.97Z"
       id="path7"
       style="fill:#0099cc;fill-opacity:1" />
    <path
       class="cls-2"
       d="M17.85,7.26a1,1,0,0,1-.371-1.929l6.3-2.519a1,1,0,1,1,.742,1.857l-6.3,2.519A.987.987,0,0,1,17.85,7.26Z"
       id="path8"
       style="fill:#0099cc;fill-opacity:1" />
  </g>
</svg>
