<?xml version="1.0" encoding="UTF-8" standalone="no"?>
<!-- Uploaded to: SVG Repo, www.svgrepo.com, Generator: SVG Repo Mixer Tools -->

<svg
   width="800px"
   height="800px"
   viewBox="0 0 24 24"
   fill="none"
   version="1.1"
   id="svg1"
   sodipodi:docname="exploring.svg"
   inkscape:version="1.4 (e7c3feb100, 2024-10-09)"
   xmlns:inkscape="http://www.inkscape.org/namespaces/inkscape"
   xmlns:sodipodi="http://sodipodi.sourceforge.net/DTD/sodipodi-0.dtd"
   xmlns="http://www.w3.org/2000/svg"
   xmlns:svg="http://www.w3.org/2000/svg">
  <defs
     id="defs1">
		
	</defs>
  <sodipodi:namedview
     id="namedview1"
     pagecolor="#ffffff"
     bordercolor="#000000"
     borderopacity="0.25"
     inkscape:showpageshadow="2"
     inkscape:pageopacity="0.0"
     inkscape:pagecheckerboard="0"
     inkscape:deskcolor="#d1d1d1"
     inkscape:zoom="1.0290533"
     inkscape:cx="323.11252"
     inkscape:cy="228.85112"
     inkscape:window-width="1920"
     inkscape:window-height="1022"
     inkscape:window-x="0"
     inkscape:window-y="0"
     inkscape:window-maximized="1"
     inkscape:current-layer="g4" />
  <g
     id="g4"
     transform="rotate(90,12,12)">
    <path
       style="fill:#0099cc;fill-opacity:1;stroke-width:0.255118;stroke-linecap:round;paint-order:markers fill stroke"
       d="m 3.2472324,11.335793 -0.059041,4.339484 8.7380076,1.918819 8.797048,-2.125461 v -4.339484 l -8.501845,1.830259 z"
       id="path4" />
    <path
       d="M 21,5 C 21,6.65685 16.9706,8 12,8 7.02944,8 3,6.65685 3,5 M 21,5 C 21,3.34315 16.9706,2 12,2 7.02944,2 3,3.34315 3,5 m 18,0 v 14 c 0,1.66 -4,3 -9,3 C 7,22 3,20.66 3,19 V 5 m 18,4.72021 c 0,1.65999 -4,2.99999 -9,2.99999 -5,0 -9,-1.34 -9,-2.99999 M 21,14.44 c 0,1.66 -4,3 -9,3 -5,0 -9,-1.34 -9,-3"
       stroke="#000000"
       stroke-width="2"
       stroke-linecap="round"
       stroke-linejoin="round"
       id="path1"
       style="stroke:#ffffff;stroke-opacity:1" />
    <circle
       id="path2"
       style="fill:#ffffff;stroke:#000000;stroke-width:0.03"
       cx="3.306273"
       cy="11.335793"
       r="0.0037914079" />
  </g>
  <g
     id="g3"
     style="fill:#0099cc;fill-opacity:1"
     transform="matrix(0,0.05384281,-0.05384281,0,49.289949,-18.052475)">
			
			
			
		</g>
</svg>
