<?xml version="1.0" encoding="UTF-8" standalone="no"?>
<!-- Uploaded to: SVG Repo, www.svgrepo.com, Generator: SVG Repo Mixer Tools -->

<svg
   width="800px"
   height="800px"
   viewBox="0 0 24 24"
   fill="none"
   version="1.1"
   id="svg1"
   sodipodi:docname="processing.svg"
   inkscape:version="1.4 (e7c3feb100, 2024-10-09)"
   xmlns:inkscape="http://www.inkscape.org/namespaces/inkscape"
   xmlns:sodipodi="http://sodipodi.sourceforge.net/DTD/sodipodi-0.dtd"
   xmlns="http://www.w3.org/2000/svg"
   xmlns:svg="http://www.w3.org/2000/svg">
  <defs
     id="defs1" />
  <sodipodi:namedview
     id="namedview1"
     pagecolor="#ffffff"
     bordercolor="#000000"
     borderopacity="0.25"
     inkscape:showpageshadow="2"
     inkscape:pageopacity="0.0"
     inkscape:pagecheckerboard="0"
     inkscape:deskcolor="#d1d1d1"
     inkscape:zoom="1.01625"
     inkscape:cx="400"
     inkscape:cy="400"
     inkscape:window-width="1920"
     inkscape:window-height="1022"
     inkscape:window-x="0"
     inkscape:window-y="0"
     inkscape:window-maximized="1"
     inkscape:current-layer="g2" />
  <g
     id="g2"
     transform="rotate(90,12.645138,11.854862)">
    <path
       style="fill:#0099cc;fill-opacity:1;stroke-width:0.255118;stroke-linecap:round;paint-order:markers fill stroke"
       d="m 14.110701,12.664207 1.062731,-2.479705 3.129151,0.177122 0.118081,1.977859 3.129151,0.236163 1.416975,2.332103 -1.859779,1.062731 1.180812,2.184501 -0.265683,2.332104 -2.154981,0.177122 c 0,0 -0.94465,0.147601 -1.092251,0.295203 -0.147602,0.147601 -0.708487,1.918819 -0.708487,1.918819 l -2.95203,-0.413284 -0.590406,-1.741698 -2.892989,-0.05904 -1.210332,-2.332104 1.535056,-1.682657 -1.357934,-2.06642 1.446494,-2.361624 z"
       id="path2" />
    <path
       fill-rule="evenodd"
       clip-rule="evenodd"
       d="M 10,1 C 9.73478,1 9.48043,1.10536 9.29289,1.29289 l -6,6 C 3.10536,7.48043 3,7.73478 3,8 v 12 c 0,1.6569 1.34315,3 3,3 H 8 C 8.55228,23 9,22.5523 9,22 9,21.4477 8.55228,21 8,21 H 6 C 5.44772,21 5,20.5523 5,20 V 9 h 5 c 0.5523,0 1,-0.44772 1,-1 V 3 h 7 c 0.5523,0 1,0.44772 1,1 v 3 c 0,0.55228 0.4477,1 1,1 0.5523,0 1,-0.44772 1,-1 V 4 C 21,2.34315 19.6569,1 18,1 Z M 9,7 H 6.41421 L 9,4.41421 Z m 4.5067,4.3155 C 13.6011,10.0209 14.6813,9 16,9 h 1 c 1.3186,0 2.3988,1.0209 2.4933,2.3155 1.1683,-0.5655 2.5926,-0.1405 3.2519,1.0015 l 0.5,0.866 c 0.6593,1.142 0.3153,2.5879 -0.7586,3.317 1.0739,0.7291 1.4179,2.175 0.7586,3.317 l -0.5,0.866 C 22.0859,21.825 20.6616,22.25 19.4933,21.6845 19.3988,22.9791 18.3186,24 17,24 H 16 C 14.6813,24 13.6011,22.9791 13.5067,21.6845 12.3384,22.25 10.9141,21.825 10.2548,20.683 l -0.5,-0.866 C 9.09548,18.675 9.43952,17.2291 10.5134,16.5 9.43952,15.7709 9.09548,14.325 9.7548,13.183 l 0.5,-0.866 c 0.6593,-1.142 2.0836,-1.567 3.2519,-1.0015 z M 16,11 c -0.2762,0 -0.5,0.2239 -0.5,0.5 v 0.9678 c 0,0.3796 -0.215,0.7265 -0.555,0.8955 -0.1322,0.0657 -0.2598,0.1396 -0.3821,0.2211 -0.3165,0.2108 -0.7251,0.2239 -1.0544,0.0337 L 12.6699,13.134 c -0.2392,-0.1381 -0.545,-0.0562 -0.6831,0.183 l -0.5,0.866 c -0.138,0.2392 -0.0561,0.545 0.1831,0.683 l 0.8389,0.4844 c 0.3287,0.1898 0.5216,0.5493 0.4981,0.9281 C 13.0023,16.3516 13,16.4255 13,16.5 c 0,0.0745 0.0023,0.1484 0.0069,0.2215 0.0235,0.3788 -0.1694,0.7383 -0.4981,0.9281 l -0.8389,0.4844 c -0.2392,0.138 -0.3211,0.4438 -0.1831,0.683 l 0.5,0.866 c 0.1381,0.2392 0.4439,0.3211 0.6831,0.183 l 0.8386,-0.4841 c 0.3293,-0.1902 0.7379,-0.1771 1.0544,0.0337 0.1223,0.0815 0.2499,0.1554 0.3821,0.2211 0.34,0.169 0.555,0.5159 0.555,0.8955 V 21.5 c 0,0.2761 0.2238,0.5 0.5,0.5 h 1 c 0.2761,0 0.5,-0.2239 0.5,-0.5 v -0.9677 c 0,-0.3797 0.215,-0.7266 0.555,-0.8956 0.1322,-0.0657 0.2598,-0.1396 0.3822,-0.2211 0.3164,-0.2108 0.725,-0.2239 1.0543,-0.0337 l 0.8386,0.4841 c 0.2392,0.1381 0.545,0.0562 0.683,-0.183 l 0.5,-0.866 c 0.1381,-0.2392 0.0562,-0.545 -0.183,-0.683 L 20.4912,17.6496 C 20.1625,17.4599 19.9696,17.1004 19.9931,16.7215 19.9977,16.6484 20,16.5745 20,16.5 c 0,-0.0745 -0.0023,-0.1484 -0.0069,-0.2215 -0.0235,-0.3789 0.1694,-0.7384 0.4981,-0.9281 l 0.8389,-0.4844 c 0.2392,-0.138 0.3211,-0.4438 0.183,-0.683 l -0.5,-0.866 c -0.138,-0.2392 -0.4438,-0.3211 -0.683,-0.183 l -0.8386,0.4841 C 19.1622,13.8083 18.7536,13.7952 18.4372,13.5844 18.3148,13.5029 18.1872,13.429 18.055,13.3633 17.715,13.1943 17.5,12.8474 17.5,12.4677 V 11.5 C 17.5,11.2239 17.2761,11 17,11 Z m 2.5,5.5 c 0,1.1046 -0.8954,2 -2,2 -1.1046,0 -2,-0.8954 -2,-2 0,-1.1046 0.8954,-2 2,-2 1.1046,0 2,0.8954 2,2 z"
       fill="#000000"
       id="path1"
       style="fill:#ffffff;fill-opacity:1" />
  </g>
</svg>
